<?xml version="1.0" encoding="iso-8859-1"?>
<!-- Uploaded to: SVG Repo, www.svgrepo.com, Generator: SVG Repo Mixer Tools -->
<svg height="800px" width="800px" version="1.1" id="Layer_1" xmlns="http://www.w3.org/2000/svg" xmlns:xlink="http://www.w3.org/1999/xlink" 
	 viewBox="0 0 512 512" xml:space="preserve">
<path d="M248,74.617C218.2,61.169,109.128,19.914,0,78.762v385.24c0,0,121.344-65.6,248-4V74.617z"/>
<path d="M264,74.617v385.384c126.656-61.6,248,4,248,4V78.762C402.872,19.914,293.8,61.169,264,74.617z"/>
<path style="fill:#FFFFFF;" d="M185.52,250.586h-28.664l-11.4-29.648H93.288l-10.776,29.648H54.56l50.832-130.504h27.864
	L185.52,250.586z M137.008,198.954l-17.984-48.432l-17.6,48.432H137.008z"/>
<path style="fill:#E21B1B;" d="M337.272,238.249h52.168c7.724-0.16,15.447,0.273,23.104,1.296c4.871,0.785,9.512,2.622,13.6,5.384
	c4.11,2.842,7.533,6.567,10.016,10.904c2.694,4.634,4.076,9.913,4,15.272c0.017,12.23-7.173,23.323-18.344,28.304
	c7.238,1.85,13.677,6.006,18.344,11.84c4.292,5.647,6.548,12.58,6.4,19.672c-0.02,6.014-1.439,11.941-4.144,17.312
	c-2.557,5.376-6.448,10.005-11.304,13.448c-5.271,3.527-11.352,5.655-17.672,6.184c-4.39,0.474-14.984,0.77-31.784,0.887h-44.384
	V238.249H337.272z M363.624,260.001v30.176h17.272c10.267,0,16.648-0.149,19.145-0.448c3.974-0.293,7.729-1.942,10.632-4.672
	c2.639-2.719,4.04-6.406,3.872-10.192c0.158-3.579-1.033-7.087-3.336-9.832c-2.622-2.712-6.162-4.347-9.928-4.584
	c-2.608-0.299-10.115-0.448-22.52-0.448L363.624,260.001L363.624,260.001z M363.624,311.905v34.888H388
	c6.036,0.189,12.077-0.078,18.072-0.8c3.705-0.578,7.096-2.417,9.6-5.208c2.585-3.095,3.904-7.053,3.696-11.08
	c0.112-3.54-0.88-7.026-2.84-9.976c-2.032-2.819-4.919-4.909-8.232-5.96c-7.677-1.644-15.535-2.271-23.376-1.864h-21.296V311.905z"
	/>
</svg>